<?xml version="1.0" encoding="UTF-8"?>
<svg version="1.1" viewBox="0 0 2048 1638" width="1280" height="1280" xmlns="http://www.w3.org/2000/svg">
<path transform="translate(747,556)" d="m0 0h61l43 3 29 4 32 7 27 9 20 9 18 11 16 13 10 10 10 13 9 15 1 4 5-5 12-14 14-14 14-11 14-10 18-10 16-8 27-10 22-6 25-5 23-3 29-2h43l35 3 30 5 28 7 21 7 20 9 21 11 12 8 13 10 10 9 7 6 7 8 10 12 12 18 10 19 9 23 6 23 1 9-1 1-39 4-10 15-8 17-4 13-2 10v25l4 18 6 15 8 14 7 9 40 4v7l-6 25-7 21-12 25-10 16-10 13-12 13-11 11-17 13-17 11-21 11-20 8-21 7-30 7-26 4-21 2-17 1h-37l-37-3-26-4-30-7-26-9-18-8-19-10-15-10-14-11-12-11-10-10-5-6-10 15-11 13-7 7-13 10-16 10-19 9-30 10-26 6-25 4-44 4-24 1h-52l-37-2-36-4-28-5-26-7-26-10-17-9-13-9-11-9-12-12-12-17-10-19-8-24-4-19-2-15-1-13v-23l3-6 4-3 4-1h245l4 4 1 115 3 3 7 1 5-2 2-4v-130l-2-4-119-1-20-1-29-4-20-5-19-7-17-9-13-10-12-12-9-14-7-15-4-14-3-17v-40l3-21 4-17 8-21 9-16 10-13 8-9 11-9 12-9 25-13 21-8 26-7 28-5 23-3zm30 83-5 3-1 2v134l3 3h99l25 1 35 4 27 6 15 5h3l3-29v-5l-1-1-188-1-1-1-1-114-3-5-4-2zm512 59-22 22-11 9-12 10-20 14-22 13-17 9-28 12-24 8-28 7-31 5v1h191l6-10 6-5 7-3h15l8 4 5 5 4 6 2 8-1 10-4 9-8 7-7 3h-13l-9-4-5-4-4-6-3-5h-188l-1 2 21 3 23 5 25 7 26 10 20 9 20 11 19 12 15 11 14 11 13 12 8 7 8 8 2 3 5-2 17-11 16-9 21-10 25-9 28-7 30-4 30-1-1-10-4-22-2-22v-23l2-21 4-23 2-9-25-1-28-3-24-5-26-8-19-8-16-8-16-9-12-8-4-3z"/>
</svg>
