<svg xmlns="http://www.w3.org/2000/svg" xmlns:xlink="http://www.w3.org/1999/xlink" width="1080" zoomAndPan="magnify" viewBox="0 0 810 809.999993" height="1080" preserveAspectRatio="xMidYMid meet" version="1.0"><defs><clipPath id="65ac82c630"><path d="M 157.828125 204.171875 L 652.078125 204.171875 L 652.078125 606 L 157.828125 606 Z M 157.828125 204.171875 " clip-rule="nonzero"/></clipPath></defs><path fill="#ffffff" d="M 459.066406 428.167969 C 471.8125 428.167969 482.238281 417.742188 482.238281 404.996094 L 482.238281 385.300781 C 482.238281 372.554688 471.8125 362.128906 459.066406 362.128906 L 350.929688 362.128906 C 346.683594 362.128906 343.207031 358.652344 343.207031 354.402344 L 343.207031 335.480469 C 343.207031 331.230469 346.683594 327.757812 350.929688 327.757812 L 420.445312 327.757812 C 428.941406 327.757812 435.894531 320.804688 435.894531 312.308594 L 435.894531 294.542969 C 440.527344 291.839844 443.617188 286.820312 443.617188 281.410156 C 443.617188 272.914062 436.667969 265.964844 428.171875 265.964844 C 419.675781 265.964844 412.722656 272.914062 412.722656 281.410156 C 412.722656 287.203125 415.8125 291.839844 420.445312 294.542969 L 420.445312 312.308594 L 350.929688 312.308594 C 338.1875 312.308594 327.757812 322.734375 327.757812 335.480469 L 327.757812 354.402344 C 327.757812 367.148438 338.1875 377.574219 350.929688 377.574219 L 459.066406 377.574219 C 463.316406 377.574219 466.789062 381.050781 466.789062 385.300781 L 466.789062 404.996094 C 466.789062 409.246094 463.316406 412.71875 459.066406 412.71875 L 405 412.71875 C 396.503906 412.71875 389.550781 419.671875 389.550781 428.167969 L 389.550781 438.210938 C 384.917969 440.914062 381.828125 445.933594 381.828125 451.339844 C 381.828125 459.835938 388.777344 466.789062 397.273438 466.789062 C 405.769531 466.789062 412.722656 459.835938 412.722656 451.339844 C 412.722656 445.546875 409.632812 440.914062 405 438.210938 L 405 428.167969 Z M 459.066406 428.167969 " fill-opacity="1" fill-rule="nonzero"/><path fill="#ffffff" d="M 461.382812 344.75 C 462.929688 346.292969 464.859375 347.066406 466.789062 347.066406 C 468.722656 347.066406 470.652344 346.292969 472.199219 344.75 L 474.515625 342.429688 L 476.832031 344.75 C 478.375 346.292969 480.308594 347.066406 482.238281 347.066406 C 484.167969 347.066406 486.101562 346.292969 487.644531 344.75 C 490.734375 341.660156 490.734375 337.023438 487.644531 333.933594 L 485.328125 331.617188 L 487.644531 329.300781 C 490.734375 326.210938 490.734375 321.578125 487.644531 318.488281 C 484.554688 315.398438 479.921875 315.398438 476.832031 318.488281 L 474.515625 320.804688 L 472.199219 318.488281 C 469.109375 315.398438 464.472656 315.398438 461.382812 318.488281 C 458.292969 321.578125 458.292969 326.210938 461.382812 329.300781 L 463.699219 331.617188 L 461.382812 333.933594 C 458.292969 337.023438 458.292969 341.660156 461.382812 344.75 Z M 461.382812 344.75 " fill-opacity="1" fill-rule="nonzero"/><path fill="#ffffff" d="M 330.074219 294.542969 C 331.621094 296.085938 333.550781 296.859375 335.484375 296.859375 C 337.414062 296.859375 339.34375 296.085938 340.890625 294.542969 L 343.207031 292.226562 L 345.523438 294.542969 C 347.070312 296.085938 349 296.859375 350.929688 296.859375 C 352.863281 296.859375 354.792969 296.085938 356.335938 294.542969 C 359.425781 291.453125 359.425781 286.820312 356.335938 283.730469 L 354.019531 281.410156 L 356.335938 279.09375 C 359.425781 276.003906 359.425781 271.371094 356.335938 268.28125 C 353.246094 265.191406 348.613281 265.191406 345.523438 268.28125 L 343.207031 270.597656 L 340.890625 268.28125 C 337.800781 265.191406 333.164062 265.191406 330.074219 268.28125 C 326.984375 271.371094 326.984375 276.003906 330.074219 279.09375 L 332.394531 281.410156 L 330.074219 283.730469 C 326.984375 286.820312 326.984375 291.453125 330.074219 294.542969 Z M 330.074219 294.542969 " fill-opacity="1" fill-rule="nonzero"/><path fill="#ffffff" d="M 335.097656 438.210938 C 332.007812 435.121094 327.371094 435.121094 324.28125 438.210938 L 321.964844 440.527344 L 319.648438 438.210938 C 316.558594 435.121094 311.925781 435.121094 308.835938 438.210938 C 305.746094 441.296875 305.746094 445.933594 308.835938 449.023438 L 311.152344 451.339844 L 308.835938 453.65625 C 305.746094 456.746094 305.746094 461.382812 308.835938 464.472656 C 310.378906 466.015625 312.3125 466.789062 314.242188 466.789062 C 316.171875 466.789062 318.105469 466.015625 319.648438 464.472656 L 321.964844 462.152344 L 324.28125 464.472656 C 325.828125 466.015625 327.757812 466.789062 329.691406 466.789062 C 331.621094 466.789062 333.550781 466.015625 335.097656 464.472656 C 338.1875 461.382812 338.1875 456.746094 335.097656 453.65625 L 332.777344 451.339844 L 335.097656 449.023438 C 338.1875 445.933594 338.1875 441.296875 335.097656 438.210938 Z M 335.097656 438.210938 " fill-opacity="1" fill-rule="nonzero"/><path fill="#ffffff" d="M 501.164062 438.210938 C 498.074219 435.121094 493.4375 435.121094 490.347656 438.210938 L 488.03125 440.527344 L 485.714844 438.210938 C 482.625 435.121094 477.992188 435.121094 474.902344 438.210938 C 471.8125 441.296875 471.8125 445.933594 474.902344 449.023438 L 477.21875 451.339844 L 474.902344 453.65625 C 471.8125 456.746094 471.8125 461.382812 474.902344 464.472656 C 476.445312 466.015625 478.375 466.789062 480.308594 466.789062 C 482.238281 466.789062 484.167969 466.015625 485.714844 464.472656 L 488.03125 462.152344 L 490.347656 464.472656 C 491.894531 466.015625 493.824219 466.789062 495.753906 466.789062 C 497.6875 466.789062 499.617188 466.015625 501.164062 464.472656 C 504.253906 461.382812 504.253906 456.746094 501.164062 453.65625 L 498.84375 451.339844 L 501.164062 449.023438 C 504.253906 445.933594 504.253906 441.296875 501.164062 438.210938 Z M 501.164062 438.210938 " fill-opacity="1" fill-rule="nonzero"/><path fill="#ffffff" d="M 555.617188 320.03125 C 559.863281 320.03125 563.339844 316.554688 563.339844 312.308594 C 563.339844 308.058594 559.863281 304.582031 555.617188 304.582031 L 540.167969 304.582031 C 535.921875 304.582031 532.445312 308.058594 532.445312 312.308594 L 532.445312 420.445312 C 532.445312 424.691406 535.921875 428.167969 540.167969 428.167969 L 555.617188 428.167969 C 559.863281 428.167969 563.339844 424.691406 563.339844 420.445312 C 563.339844 416.195312 559.863281 412.71875 555.617188 412.71875 L 547.894531 412.71875 L 547.894531 320.03125 Z M 555.617188 320.03125 " fill-opacity="1" fill-rule="nonzero"/><path fill="#ffffff" d="M 269.828125 304.582031 L 254.378906 304.582031 C 250.132812 304.582031 246.65625 308.058594 246.65625 312.308594 C 246.65625 316.554688 250.132812 320.03125 254.378906 320.03125 L 262.105469 320.03125 L 262.105469 412.71875 L 254.378906 412.71875 C 250.132812 412.71875 246.65625 416.195312 246.65625 420.445312 C 246.65625 424.691406 250.132812 428.167969 254.378906 428.167969 L 269.828125 428.167969 C 274.078125 428.167969 277.550781 424.691406 277.550781 420.445312 L 277.550781 312.308594 C 277.550781 308.058594 274.078125 304.582031 269.828125 304.582031 Z M 269.828125 304.582031 " fill-opacity="1" fill-rule="nonzero"/><g clip-path="url(#65ac82c630)"><path fill="#ffffff" d="M 644.441406 590.371094 L 537.851562 590.371094 L 523.5625 551.753906 L 547.894531 551.753906 C 552.140625 551.753906 555.617188 548.277344 555.617188 544.027344 C 555.617188 539.78125 552.140625 536.304688 547.894531 536.304688 L 518.15625 536.304688 L 503.867188 497.683594 L 571.066406 497.683594 C 583.808594 497.683594 594.238281 487.257812 594.238281 474.511719 L 594.238281 258.238281 C 594.238281 245.496094 583.808594 235.066406 571.066406 235.066406 L 439.757812 235.066406 L 439.757812 219.621094 C 439.757812 211.125 432.804688 204.171875 424.308594 204.171875 L 385.6875 204.171875 C 377.191406 204.171875 370.242188 211.125 370.242188 219.621094 L 370.242188 235.066406 L 238.933594 235.066406 C 226.1875 235.066406 215.761719 245.496094 215.761719 258.238281 L 215.761719 474.511719 C 215.761719 487.257812 226.1875 497.683594 238.933594 497.683594 L 306.132812 497.683594 L 291.84375 536.304688 L 262.105469 536.304688 C 257.855469 536.304688 254.378906 539.78125 254.378906 544.027344 C 254.378906 548.277344 257.855469 551.753906 262.105469 551.753906 L 286.433594 551.753906 L 272.144531 590.371094 L 165.554688 590.371094 C 161.304688 590.371094 157.832031 593.847656 157.832031 598.097656 C 157.832031 602.34375 161.304688 605.820312 165.554688 605.820312 L 644.441406 605.820312 C 648.691406 605.820312 652.167969 602.34375 652.167969 598.097656 C 652.167969 593.847656 648.691406 590.371094 644.441406 590.371094 Z M 385.6875 219.621094 L 424.308594 219.621094 L 424.308594 235.066406 L 385.6875 235.066406 Z M 238.933594 482.234375 C 234.683594 482.234375 231.207031 478.761719 231.207031 474.511719 L 231.207031 258.238281 C 231.207031 253.992188 234.683594 250.515625 238.933594 250.515625 L 571.066406 250.515625 C 575.3125 250.515625 578.789062 253.992188 578.789062 258.238281 L 578.789062 474.511719 C 578.789062 478.761719 575.3125 482.234375 571.066406 482.234375 Z M 501.546875 536.304688 L 308.449219 536.304688 L 322.738281 497.683594 L 487.644531 497.683594 Z M 288.753906 590.371094 L 303.042969 551.753906 L 507.339844 551.753906 L 521.632812 590.371094 Z M 288.753906 590.371094 " fill-opacity="1" fill-rule="nonzero"/></g></svg>