<svg xmlns="http://www.w3.org/2000/svg" xmlns:xlink="http://www.w3.org/1999/xlink" width="1080" zoomAndPan="magnify" viewBox="0 0 810 809.999993" height="1080" preserveAspectRatio="xMidYMid meet" version="1.0"><defs><clipPath id="7db723d82f"><path d="M 246 169.726562 L 564 169.726562 L 564 639.976562 L 246 639.976562 Z M 246 169.726562 " clip-rule="nonzero"/></clipPath></defs><g clip-path="url(#7db723d82f)"><path fill="#ffffff" d="M 404.671875 169.726562 C 317.261719 169.726562 246.265625 239.929688 246.265625 326.496094 C 246.265625 348.121094 250.707031 368.773438 258.722656 387.535156 C 266.738281 406.300781 278.355469 423.175781 292.675781 437.367188 C 299.851562 444.441406 307.6875 450.871094 316.136719 456.515625 C 323.695312 461.570312 340.082031 474.511719 340.082031 501.445312 L 340.082031 532.335938 C 340.082031 532.4375 340.082031 532.5625 340.082031 532.691406 L 340.082031 549.386719 C 340.082031 549.539062 340.082031 549.695312 340.109375 549.847656 L 340.109375 549.871094 C 340.132812 550 340.132812 550.152344 340.160156 550.28125 C 340.160156 550.304688 340.160156 550.332031 340.160156 550.382812 C 340.183594 550.484375 340.234375 550.585938 340.261719 550.691406 C 340.289062 550.742188 340.289062 550.816406 340.3125 550.867188 C 340.363281 550.96875 340.390625 551.074219 340.441406 551.175781 C 340.441406 551.226562 340.464844 551.277344 340.492188 551.328125 C 340.542969 551.429688 340.59375 551.558594 340.644531 551.683594 C 340.671875 551.710938 340.695312 551.734375 340.695312 551.761719 C 340.773438 551.863281 340.824219 551.941406 340.875 552.042969 C 340.925781 552.09375 340.949219 552.171875 341.003906 552.222656 C 341.054688 552.296875 341.078125 552.347656 341.128906 552.398438 C 341.179688 552.476562 341.230469 552.554688 341.308594 552.628906 C 341.359375 552.707031 341.410156 552.757812 341.460938 552.808594 C 341.511719 552.886719 341.5625 552.9375 341.640625 553.011719 C 341.691406 553.039062 341.742188 553.089844 341.792969 553.140625 C 341.871094 553.191406 341.945312 553.269531 342.023438 553.320312 C 342.074219 553.34375 342.101562 553.371094 342.152344 553.421875 C 342.253906 553.472656 342.328125 553.546875 342.433594 553.601562 C 342.484375 553.601562 342.507812 553.625 342.558594 553.625 C 342.636719 553.703125 342.738281 553.753906 342.867188 553.828125 C 342.890625 553.828125 342.941406 553.855469 342.992188 553.855469 C 343.09375 553.90625 343.222656 553.957031 343.324219 553.984375 C 343.375 554.007812 343.402344 554.007812 343.453125 554.035156 C 343.554688 554.058594 343.683594 554.085938 343.785156 554.109375 C 343.835938 554.109375 343.863281 554.136719 343.914062 554.136719 C 344.015625 554.160156 344.140625 554.1875 344.269531 554.238281 C 344.296875 554.238281 344.347656 554.238281 344.371094 554.238281 C 344.523438 554.261719 344.652344 554.261719 344.78125 554.289062 C 344.855469 554.289062 344.933594 554.289062 345.011719 554.289062 L 462.160156 554.289062 C 462.1875 554.289062 462.1875 554.289062 462.210938 554.289062 C 462.3125 554.289062 462.441406 554.289062 462.570312 554.261719 C 462.59375 554.261719 462.644531 554.261719 462.695312 554.261719 C 462.824219 554.238281 462.925781 554.238281 463.054688 554.210938 C 463.105469 554.210938 463.132812 554.210938 463.183594 554.1875 C 463.308594 554.160156 463.4375 554.136719 463.566406 554.109375 C 463.589844 554.109375 463.617188 554.085938 463.640625 554.085938 C 463.742188 554.058594 463.847656 554.007812 463.949219 553.957031 C 464.023438 553.957031 464.074219 553.933594 464.125 553.933594 C 464.230469 553.878906 464.304688 553.828125 464.40625 553.777344 C 464.457031 553.753906 464.507812 553.726562 464.558594 553.703125 C 464.664062 553.652344 464.738281 553.625 464.816406 553.574219 C 464.867188 553.546875 464.945312 553.496094 464.996094 553.472656 C 465.070312 553.421875 465.148438 553.34375 465.222656 553.292969 C 465.273438 553.242188 465.328125 553.21875 465.378906 553.164062 C 465.453125 553.089844 465.503906 553.039062 465.582031 552.988281 C 465.632812 552.910156 465.683594 552.859375 465.761719 552.78125 C 465.8125 552.757812 465.835938 552.707031 465.886719 552.65625 C 465.964844 552.578125 466.015625 552.503906 466.09375 552.425781 C 466.117188 552.398438 466.117188 552.375 466.144531 552.347656 C 466.21875 552.246094 466.296875 552.144531 466.347656 552.015625 C 466.371094 551.992188 466.398438 551.964844 466.398438 551.941406 C 466.476562 551.839844 466.527344 551.734375 466.578125 551.632812 C 466.601562 551.582031 466.601562 551.53125 466.628906 551.480469 C 466.679688 551.40625 466.703125 551.300781 466.730469 551.226562 C 466.757812 551.148438 466.78125 551.097656 466.808594 551.046875 C 466.832031 550.945312 466.859375 550.816406 466.882812 550.714844 C 466.910156 550.691406 466.910156 550.636719 466.933594 550.585938 C 466.960938 550.484375 466.984375 550.359375 467.011719 550.230469 C 467.011719 550.203125 467.011719 550.179688 467.011719 550.128906 C 467.011719 550 467.035156 549.871094 467.035156 549.746094 C 467.035156 549.667969 467.035156 549.59375 467.035156 549.515625 L 467.035156 501.597656 C 467.035156 501.265625 467.011719 500.933594 466.933594 500.628906 C 467.394531 474.613281 485.390625 461.902344 493.203125 456.667969 C 501.652344 451.027344 509.492188 444.617188 516.640625 437.519531 C 530.984375 423.328125 542.574219 406.453125 550.617188 387.691406 C 558.632812 368.925781 563.074219 348.273438 563.074219 326.652344 C 563.074219 240.082031 492.054688 169.878906 404.671875 169.878906 Z M 404.671875 179.53125 C 486.820312 179.53125 553.246094 245.292969 553.246094 326.496094 C 553.246094 346.792969 549.109375 366.09375 541.582031 383.679688 C 534.074219 401.246094 523.199219 417.097656 509.746094 430.398438 C 503.03125 437.0625 495.679688 443.0625 487.765625 448.34375 C 479.367188 453.960938 457.105469 470.199219 457.105469 501.445312 C 457.105469 501.777344 457.15625 502.132812 457.234375 502.464844 L 457.234375 527.765625 L 408.449219 527.765625 L 408.449219 373.929688 C 408.449219 373.828125 408.449219 373.75 408.449219 373.648438 L 418.023438 373.648438 L 418.023438 441.683594 C 417.917969 444.71875 420.601562 447.121094 423.613281 446.6875 C 423.917969 446.738281 424.25 446.789062 424.558594 446.789062 L 438.828125 446.789062 C 440.691406 451.179688 445.003906 454.34375 450.058594 454.34375 C 456.851562 454.34375 462.3125 448.625 462.3125 441.859375 C 462.3125 435.121094 456.851562 429.429688 450.058594 429.429688 C 445.003906 429.429688 440.691406 432.570312 438.800781 436.984375 L 427.824219 436.984375 L 427.824219 373.625 C 427.824219 373.242188 427.773438 372.882812 427.695312 372.527344 C 430.300781 371.65625 432.699219 370.382812 434.792969 368.722656 L 445.261719 378.296875 L 445.335938 378.347656 C 445.285156 378.574219 445.285156 378.832031 445.285156 379.085938 L 445.183594 388.8125 L 445.082031 396.472656 C 440.792969 398.4375 437.832031 402.828125 437.832031 407.832031 C 437.832031 414.570312 443.296875 420.289062 450.085938 420.289062 C 456.875 420.289062 462.339844 414.570312 462.339844 407.832031 C 462.339844 402.777344 459.277344 398.308594 454.886719 396.394531 L 454.988281 388.914062 L 455.039062 387.203125 L 456.210938 388.277344 L 467.113281 398.285156 L 471.273438 402.085938 C 470.355469 403.796875 469.84375 405.765625 469.84375 407.832031 C 469.84375 414.570312 475.332031 420.289062 482.125 420.289062 C 488.890625 420.289062 494.378906 414.570312 494.378906 407.832031 C 494.378906 401.066406 488.890625 395.375 482.125 395.375 C 481 395.375 479.953125 395.550781 478.933594 395.808594 L 473.75 391.058594 L 462.851562 381.078125 L 451.925781 371.070312 L 441.023438 361.0625 C 441.6875 359.683594 442.199219 358.253906 442.582031 356.75 L 473.953125 356.75 L 479.851562 365.914062 C 477.582031 368.1875 476.175781 371.324219 476.175781 374.746094 C 476.175781 381.484375 481.640625 387.203125 488.429688 387.203125 C 495.21875 387.203125 500.710938 381.484375 500.710938 374.746094 C 500.710938 368.261719 495.628906 362.75 489.222656 362.339844 L 485.621094 356.75 L 498.359375 356.75 C 499.101562 356.875 499.867188 356.824219 500.582031 356.621094 C 501.371094 356.441406 502.113281 356.058594 502.726562 355.523438 L 510.433594 350.953125 C 512.453125 352.484375 514.953125 353.40625 517.683594 353.40625 C 524.449219 353.40625 529.9375 347.710938 529.9375 340.945312 C 529.9375 334.207031 524.449219 328.488281 517.683594 328.488281 C 510.894531 328.488281 505.40625 334.207031 505.40625 340.945312 C 505.40625 341.457031 505.457031 341.96875 505.535156 342.453125 L 497.976562 346.945312 L 477.324219 346.945312 C 477.121094 346.921875 476.890625 346.894531 476.6875 346.894531 C 476.429688 346.894531 476.152344 346.921875 475.894531 346.945312 L 439.671875 346.945312 C 436.53125 346.027344 433.390625 348.375 433.390625 351.644531 C 433.390625 358.382812 427.875 363.820312 420.675781 363.820312 L 386.546875 363.820312 C 379.347656 363.820312 373.832031 358.382812 373.832031 351.644531 L 373.832031 351.617188 C 373.832031 351.542969 373.832031 351.464844 373.832031 351.386719 C 373.832031 351.261719 373.804688 351.132812 373.804688 351.03125 C 373.804688 351.03125 373.804688 351.03125 373.804688 351.003906 C 373.5 348.527344 371.355469 346.640625 368.855469 346.691406 C 368.625 346.691406 368.394531 346.691406 368.164062 346.714844 L 331.863281 346.714844 C 331.554688 346.691406 331.226562 346.664062 330.917969 346.691406 C 330.738281 346.691406 330.585938 346.691406 330.40625 346.714844 L 309.753906 346.714844 L 302.222656 342.25 C 302.273438 341.738281 302.328125 341.253906 302.328125 340.742188 C 302.328125 333.976562 296.863281 328.285156 290.074219 328.285156 C 283.28125 328.285156 277.820312 333.976562 277.820312 340.742188 C 277.820312 347.480469 283.28125 353.175781 290.074219 353.175781 C 292.777344 353.175781 295.28125 352.253906 297.324219 350.722656 L 305.898438 355.828125 L 305.925781 355.828125 C 305.976562 355.882812 306.027344 355.90625 306.078125 355.933594 C 306.15625 355.984375 306.257812 356.035156 306.335938 356.058594 C 306.386719 356.085938 306.4375 356.085938 306.488281 356.109375 C 306.589844 356.136719 306.691406 356.1875 306.792969 356.238281 C 306.871094 356.238281 306.945312 356.265625 307 356.265625 C 307.074219 356.289062 307.175781 356.339844 307.253906 356.367188 C 307.355469 356.367188 307.457031 356.390625 307.558594 356.390625 C 307.609375 356.417969 307.6875 356.417969 307.738281 356.441406 C 307.867188 356.441406 307.96875 356.46875 308.070312 356.46875 C 308.121094 356.46875 308.171875 356.492188 308.222656 356.492188 C 308.25 356.492188 308.25 356.492188 308.273438 356.492188 C 308.324219 356.492188 308.375 356.492188 308.425781 356.492188 L 322.136719 356.492188 L 318.535156 362.085938 C 312.128906 362.492188 307.050781 368.007812 307.050781 374.492188 C 307.050781 381.257812 312.539062 386.949219 319.304688 386.949219 C 326.09375 386.949219 331.582031 381.257812 331.582031 374.492188 C 331.582031 371.070312 330.179688 367.929688 327.90625 365.660156 L 333.777344 356.492188 L 364.617188 356.492188 C 365 358.128906 365.5625 359.710938 366.300781 361.191406 L 355.835938 370.816406 L 344.90625 380.796875 L 334.007812 390.804688 L 328.824219 395.578125 C 327.804688 395.296875 326.730469 395.117188 325.632812 395.117188 C 318.84375 395.117188 313.378906 400.8125 313.378906 407.578125 C 313.378906 414.316406 318.84375 420.035156 325.632812 420.035156 C 332.425781 420.035156 337.886719 414.316406 337.886719 407.578125 C 337.886719 405.507812 337.378906 403.566406 336.484375 401.832031 L 340.621094 398.027344 L 351.546875 388.019531 L 352.71875 386.949219 L 352.769531 388.683594 L 352.847656 396.140625 C 348.480469 398.054688 345.417969 402.523438 345.417969 407.578125 C 345.417969 414.316406 350.882812 420.035156 357.671875 420.035156 C 364.464844 420.035156 369.925781 414.316406 369.925781 407.578125 C 369.925781 402.597656 366.964844 398.183594 362.675781 396.214844 L 362.574219 388.558594 L 362.472656 378.832031 C 362.472656 378.574219 362.445312 378.320312 362.394531 378.089844 L 362.472656 378.066406 L 372.582031 368.796875 C 374.75 370.484375 377.253906 371.785156 379.957031 372.601562 C 379.933594 372.855469 379.90625 373.113281 379.90625 373.367188 L 379.90625 436.730469 L 368.929688 436.730469 C 367.042969 432.339844 362.703125 429.171875 357.671875 429.171875 C 350.882812 429.171875 345.417969 434.867188 345.417969 441.632812 C 345.417969 448.371094 350.882812 454.089844 357.671875 454.089844 C 362.703125 454.089844 367.042969 450.925781 368.929688 446.53125 L 383.148438 446.53125 C 383.710938 446.53125 384.246094 446.457031 384.757812 446.304688 C 387.488281 446.328125 389.710938 444.132812 389.710938 441.402344 L 389.710938 373.570312 L 398.746094 373.570312 C 398.746094 373.675781 398.746094 373.75 398.746094 373.851562 L 398.746094 527.6875 L 349.960938 527.6875 L 349.960938 501.46875 C 349.960938 501.445312 349.960938 501.394531 349.960938 501.34375 C 349.960938 470.375 330.433594 454.113281 321.675781 448.269531 C 313.761719 442.984375 306.410156 436.960938 299.671875 430.320312 C 286.242188 417.023438 275.34375 401.167969 267.835938 383.578125 C 260.332031 366.015625 256.171875 346.714844 256.171875 326.394531 C 256.171875 245.214844 322.621094 179.425781 404.773438 179.425781 Z M 407.324219 213.585938 C 398.773438 213.558594 390.375 216.722656 383.226562 222.109375 C 383.097656 222.1875 382.972656 222.316406 382.84375 222.417969 C 382.460938 222.136719 382.050781 221.933594 381.644531 221.675781 C 377.535156 219.304688 372.964844 217.695312 368.191406 217.03125 C 363.417969 216.339844 358.414062 216.621094 353.460938 217.925781 C 340.007812 221.5 330.253906 232.09375 326.988281 244.703125 C 326.9375 244.730469 326.859375 244.730469 326.808594 244.753906 C 323.589844 245.394531 320.503906 246.363281 317.542969 247.613281 C 311.644531 250.117188 306.308594 253.714844 301.867188 258.183594 C 297.398438 262.625 293.773438 267.933594 291.296875 273.832031 C 288.796875 279.730469 287.417969 286.214844 287.417969 293.003906 C 287.417969 320.167969 309.550781 342.273438 336.738281 342.273438 C 347.050781 342.273438 356.652344 339.109375 364.566406 333.671875 C 370.820312 340.128906 379.296875 344.519531 388.84375 345.464844 C 399.898438 346.5625 410.261719 342.808594 417.945312 335.941406 C 421.214844 339.082031 425.425781 341.457031 430.25 342.65625 C 441.429688 345.414062 453.046875 341.175781 459.097656 332.523438 C 466.066406 339.671875 476.8125 342.886719 487.28125 340.078125 C 487.382812 340.054688 487.484375 340.027344 487.585938 339.976562 C 487.636719 339.976562 487.714844 339.949219 487.792969 339.949219 C 487.867188 339.925781 487.945312 339.875 488.019531 339.847656 C 492.796875 338.367188 497.210938 335.992188 501.039062 332.90625 C 508.953125 326.546875 514.445312 317.152344 515.617188 306.304688 C 517.300781 290.910156 509.824219 276.5625 497.570312 268.699219 C 497.3125 241.769531 475.28125 219.941406 448.246094 219.941406 C 442.121094 219.941406 436.222656 221.0625 430.785156 223.132812 C 426.625 219.148438 421.597656 216.214844 415.878906 214.683594 C 413.019531 213.941406 410.160156 213.585938 407.324219 213.558594 Z M 407.222656 223.386719 C 409.292969 223.386719 411.332031 223.644531 413.351562 224.179688 C 421.417969 226.324219 427.695312 232.398438 431.375 241.105469 C 432.394531 243.632812 435.304688 244.804688 437.832031 243.757812 C 440.332031 242.6875 441.507812 239.777344 440.410156 237.273438 C 439.515625 235.183594 438.496094 233.191406 437.320312 231.300781 C 440.792969 230.304688 444.445312 229.746094 448.246094 229.746094 C 468.390625 229.746094 484.90625 244.679688 487.433594 264.082031 C 485.1875 263.417969 482.839844 262.929688 480.4375 262.675781 C 469.589844 261.5 459.199219 264.820312 451.3125 271.175781 C 449.140625 272.863281 448.757812 275.976562 450.46875 278.121094 C 452.203125 280.265625 455.34375 280.570312 457.4375 278.808594 C 463.410156 274.035156 471.148438 271.507812 479.394531 272.402344 C 495.859375 274.1875 507.652344 288.84375 505.867188 305.257812 C 504.972656 313.476562 500.863281 320.5 494.886719 325.273438 C 491.925781 327.671875 488.507812 329.484375 484.804688 330.609375 C 474.441406 333.390625 464.382812 327.75 461.855469 318.125 C 459.328125 308.5 465.429688 298.289062 475.792969 295.429688 C 481.460938 294 480.335938 285.675781 474.515625 285.78125 C 474.058594 285.78125 473.625 285.855469 473.214844 285.984375 C 457.921875 290.171875 448.453125 305.613281 452.359375 320.601562 C 452.5625 321.316406 452.765625 322.03125 453.023438 322.71875 C 452.996094 322.796875 452.96875 322.898438 452.945312 322.972656 C 450.75 330.503906 441.738281 335.40625 432.597656 333.160156 C 429.230469 332.316406 426.445312 330.660156 424.378906 328.539062 C 427.875 323.253906 430.121094 317.027344 430.683594 310.234375 C 430.964844 307.273438 428.566406 304.746094 425.605469 304.875 C 423.101562 304.953125 421.058594 306.941406 420.882812 309.445312 C 419.605469 325.679688 405.792969 337.320312 389.8125 335.738281 C 382.894531 335.050781 376.742188 331.984375 372.097656 327.367188 C 375.414062 323.96875 378.25 320.089844 380.46875 315.828125 C 381.210938 316.363281 381.925781 316.925781 382.589844 317.5625 C 384.527344 319.476562 387.667969 319.453125 389.582031 317.484375 C 391.472656 315.546875 391.394531 312.40625 389.429688 310.515625 C 383.890625 305.15625 376.5625 302.476562 369.238281 302.371094 C 366.503906 302.320312 364.257812 304.492188 364.207031 307.222656 C 364.183594 309.953125 366.378906 312.175781 369.109375 312.175781 C 369.796875 312.203125 370.511719 312.226562 371.203125 312.328125 C 369.441406 315.46875 367.246094 318.355469 364.691406 320.90625 C 357.542969 328.054688 347.691406 332.472656 336.738281 332.472656 C 314.835938 332.472656 297.195312 314.855469 297.195312 293.003906 C 297.195312 287.539062 298.316406 282.382812 300.308594 277.660156 C 302.300781 272.9375 305.210938 268.675781 308.785156 265.125 C 312.359375 261.554688 316.621094 258.640625 321.34375 256.652344 C 322.800781 256.039062 324.304688 255.527344 325.839844 255.070312 C 325.941406 257.851562 326.324219 260.632812 327.0625 263.417969 C 329.691406 273.320312 336.101562 281.261719 344.320312 286.035156 C 348.429688 288.433594 353 290.015625 357.773438 290.707031 C 360.507812 291.140625 363.058594 289.277344 363.441406 286.546875 C 363.824219 283.8125 361.882812 281.3125 359.152344 280.980469 C 355.628906 280.496094 352.261719 279.320312 349.246094 277.558594 C 348.429688 277.074219 347.664062 276.5625 346.898438 276.027344 C 349.195312 275.671875 351.441406 274.957031 353.511719 273.78125 C 361.550781 269.542969 365.890625 260.300781 363.644531 251.519531 C 362.703125 247.359375 360.300781 243.785156 357.109375 241.28125 C 356.21875 240.542969 355.09375 240.160156 353.917969 240.160156 C 349.273438 240.238281 347.332031 246.132812 351.007812 248.96875 C 352.59375 250.191406 353.714844 251.902344 354.125 253.765625 L 354.125 253.84375 L 354.148438 253.945312 C 355.171875 257.800781 352.746094 263.160156 348.914062 265.152344 L 348.839844 265.203125 L 348.761719 265.230469 C 345.1875 267.246094 340.132812 266.53125 337.53125 263.925781 C 337.148438 262.957031 336.816406 261.960938 336.535156 260.914062 C 332.65625 246.261719 341.308594 231.328125 355.960938 227.421875 C 359.636719 226.425781 363.289062 226.246094 366.8125 226.757812 C 370.335938 227.242188 373.679688 228.417969 376.714844 230.179688 C 379.753906 231.941406 382.433594 234.261719 384.605469 237.070312 C 385.703125 238.476562 386.648438 240.007812 387.464844 241.640625 C 388.664062 244.066406 391.625 245.0625 394.050781 243.835938 C 396.476562 242.636719 397.472656 239.699219 396.246094 237.273438 C 395.148438 235.054688 393.847656 232.984375 392.367188 231.070312 C 391.777344 230.332031 391.164062 229.617188 390.554688 228.925781 C 395.863281 225.300781 401.554688 223.363281 407.222656 223.386719 Z M 407.605469 243.988281 C 402.476562 243.808594 400.558594 250.652344 405.054688 253.179688 C 412.992188 257.75 418.199219 264.4375 419.476562 272.097656 C 420.753906 279.753906 417.972656 287.183594 411.945312 293.386719 C 409.980469 295.300781 409.980469 298.46875 411.945312 300.382812 C 413.910156 302.296875 417.078125 302.21875 418.964844 300.203125 C 422.921875 296.167969 425.9375 291.394531 427.722656 286.265625 C 433.3125 289.300781 439.671875 290.324219 445.769531 289.53125 C 448.503906 289.226562 450.441406 286.722656 450.085938 284.019531 C 449.726562 281.285156 447.226562 279.398438 444.496094 279.804688 C 439.515625 280.445312 434.4375 279.320312 430.378906 276.386719 C 430.121094 276.207031 429.839844 276.027344 429.535156 275.898438 C 429.535156 274.113281 429.433594 272.300781 429.125 270.488281 C 427.3125 259.460938 419.886719 250.421875 409.929688 244.679688 C 409.238281 244.269531 408.421875 244.039062 407.605469 243.988281 Z M 375.898438 261.707031 C 373.371094 261.707031 371.253906 263.59375 371 266.097656 C 370.054688 274.34375 372.121094 283.125 377.304688 290.679688 C 382.511719 298.210938 389.941406 303.242188 397.929688 305.128906 C 400.585938 305.769531 403.242188 304.132812 403.878906 301.503906 C 404.492188 298.851562 402.859375 296.195312 400.203125 295.582031 C 394.664062 294.28125 389.25 290.730469 385.394531 285.117188 C 385.394531 285.117188 385.394531 285.117188 385.394531 285.089844 C 392.621094 281.875 398.261719 276.179688 401.632812 269.390625 C 403.34375 266.019531 400.765625 262.0625 396.988281 262.265625 C 395.199219 262.371094 393.617188 263.417969 392.851562 265.050781 C 390.425781 269.902344 386.417969 273.910156 381.363281 276.15625 C 380.621094 273.144531 380.417969 270.105469 380.75 267.21875 C 381.132812 264.308594 378.859375 261.707031 375.898438 261.707031 Z M 320.734375 274.546875 C 319.457031 274.519531 318.230469 274.980469 317.285156 275.824219 C 306.488281 285.34375 305.441406 301.988281 314.9375 312.839844 C 324.433594 323.6875 341.054688 324.8125 351.851562 315.289062 C 353.917969 313.503906 354.125 310.390625 352.3125 308.347656 C 350.523438 306.304688 347.410156 306.125 345.367188 307.9375 C 338.550781 313.9375 328.339844 313.273438 322.316406 306.40625 C 316.316406 299.515625 316.953125 289.175781 323.769531 283.175781 C 327.164062 280.265625 325.199219 274.699219 320.734375 274.546875 Z M 289.996094 338.113281 C 291.347656 338.113281 292.445312 339.160156 292.445312 340.769531 C 292.445312 342.351562 291.347656 343.421875 289.996094 343.421875 C 288.667969 343.421875 287.546875 342.351562 287.546875 340.769531 C 287.546875 339.160156 288.667969 338.113281 289.996094 338.113281 Z M 517.632812 338.292969 C 518.960938 338.292969 520.085938 339.363281 520.085938 340.945312 C 520.085938 342.53125 518.960938 343.601562 517.632812 343.601562 C 516.28125 343.601562 515.183594 342.53125 515.183594 340.945312 C 515.183594 339.363281 516.28125 338.292969 517.632812 338.292969 Z M 319.25 371.886719 C 320.578125 371.886719 321.703125 372.960938 321.703125 374.542969 C 321.703125 376.152344 320.578125 377.199219 319.25 377.199219 C 317.898438 377.199219 316.777344 376.152344 316.777344 374.542969 C 316.777344 372.960938 317.898438 371.886719 319.25 371.886719 Z M 488.378906 372.117188 C 489.730469 372.117188 490.828125 373.164062 490.828125 374.773438 C 490.828125 376.355469 489.707031 377.425781 488.378906 377.425781 C 487.050781 377.425781 485.929688 376.355469 485.929688 374.773438 C 485.929688 373.164062 487.050781 372.117188 488.378906 372.117188 Z M 325.558594 404.996094 C 326.910156 404.996094 328.007812 406.042969 328.007812 407.652344 C 328.007812 409.234375 326.910156 410.308594 325.558594 410.308594 C 324.230469 410.308594 323.105469 409.234375 323.105469 407.652344 C 323.105469 406.042969 324.230469 404.996094 325.558594 404.996094 Z M 357.570312 404.996094 C 358.898438 404.996094 360.019531 406.042969 360.019531 407.652344 C 360.019531 409.234375 358.898438 410.308594 357.570312 410.308594 C 356.242188 410.308594 355.121094 409.234375 355.121094 407.652344 C 355.121094 406.042969 356.242188 404.996094 357.570312 404.996094 Z M 450.058594 405.175781 C 451.386719 405.175781 452.511719 406.25 452.511719 407.832031 C 452.511719 409.414062 451.386719 410.488281 450.058594 410.488281 C 448.707031 410.488281 447.585938 409.414062 447.585938 407.832031 C 447.585938 406.25 448.707031 405.175781 450.058594 405.175781 Z M 482.046875 405.175781 C 483.402344 405.175781 484.523438 406.25 484.523438 407.832031 C 484.523438 409.414062 483.402344 410.488281 482.046875 410.488281 C 480.71875 410.488281 479.621094 409.414062 479.621094 407.832031 C 479.621094 406.25 480.71875 405.175781 482.046875 405.175781 Z M 357.570312 439.027344 C 358.898438 439.027344 360.019531 440.074219 360.019531 441.65625 C 360.019531 443.265625 358.898438 444.3125 357.570312 444.3125 C 356.242188 444.3125 355.121094 443.265625 355.121094 441.65625 C 355.121094 440.074219 356.242188 439.027344 357.570312 439.027344 Z M 450.058594 439.207031 C 451.386719 439.207031 452.511719 440.253906 452.511719 441.859375 C 452.511719 443.445312 451.386719 444.515625 450.058594 444.515625 C 448.707031 444.515625 447.585938 443.445312 447.585938 441.859375 C 447.585938 440.253906 448.707031 439.207031 450.058594 439.207031 Z M 349.859375 537.566406 L 457.234375 537.566406 L 457.234375 544.433594 L 349.859375 544.433594 Z M 462.1875 560.875 C 462.160156 560.875 462.160156 560.875 462.136719 560.875 L 344.960938 560.875 C 342.203125 560.800781 339.90625 563.019531 339.90625 565.777344 C 339.90625 568.558594 342.203125 570.78125 344.960938 570.679688 L 462.136719 570.679688 C 464.890625 570.753906 467.164062 568.558594 467.191406 565.800781 C 467.191406 563.046875 464.945312 560.824219 462.1875 560.875 Z M 344.960938 578.234375 C 342.226562 578.210938 340.007812 580.40625 340.007812 583.136719 C 340.007812 585.867188 342.226562 588.0625 344.960938 588.039062 L 462.136719 588.039062 C 464.867188 588.0625 467.085938 585.867188 467.085938 583.136719 C 467.085938 580.40625 464.867188 578.210938 462.136719 578.234375 Z M 349.425781 595.414062 C 348.710938 595.414062 348.023438 595.59375 347.382812 595.902344 C 344.449219 597.226562 343.554688 600.957031 345.570312 603.457031 C 348.761719 610.453125 353.203125 616.78125 358.667969 622.117188 C 364.386719 627.734375 371.226562 632.277344 378.835938 635.417969 C 386.441406 638.535156 394.789062 640.269531 403.546875 640.269531 C 412.304688 640.269531 420.675781 638.535156 428.257812 635.417969 C 435.867188 632.277344 442.707031 627.734375 448.453125 622.117188 C 453.890625 616.78125 458.332031 610.453125 461.523438 603.457031 C 464.125 600.191406 461.753906 595.390625 457.589844 595.464844 C 457.515625 595.464844 457.464844 595.464844 457.386719 595.464844 L 350.320312 595.464844 C 350.015625 595.441406 349.734375 595.414062 349.425781 595.441406 Z M 357.648438 605.269531 L 449.472656 605.269531 C 447.253906 608.871094 444.597656 612.164062 441.585938 615.097656 C 436.734375 619.847656 430.9375 623.703125 424.53125 626.355469 C 418.097656 629.011719 411.027344 630.464844 403.546875 630.464844 C 396.066406 630.464844 388.996094 629.011719 382.589844 626.355469 C 376.15625 623.703125 370.359375 619.847656 365.507812 615.097656 C 362.496094 612.164062 359.867188 608.871094 357.648438 605.269531 Z M 357.648438 605.269531 " fill-opacity="1" fill-rule="nonzero"/></g></svg>