<svg xmlns="http://www.w3.org/2000/svg" xmlns:xlink="http://www.w3.org/1999/xlink" width="1080" zoomAndPan="magnify" viewBox="0 0 810 809.999993" height="1080" preserveAspectRatio="xMidYMid meet" version="1.0"><defs><clipPath id="51331a44f9"><path d="M 242 178.898438 L 333 178.898438 L 333 270 L 242 270 Z M 242 178.898438 " clip-rule="nonzero"/></clipPath><clipPath id="b8b61611d5"><path d="M 466 387 L 626.855469 387 L 626.855469 631.148438 L 466 631.148438 Z M 466 387 " clip-rule="nonzero"/></clipPath><clipPath id="79cc975558"><path d="M 575 387 L 588 387 L 588 631.148438 L 575 631.148438 Z M 575 387 " clip-rule="nonzero"/></clipPath></defs><g clip-path="url(#51331a44f9)"><path fill="#ffffff" d="M 287.132812 269.140625 C 262.25 269.140625 242.011719 248.898438 242.011719 224.019531 C 242.011719 199.140625 262.25 178.898438 287.132812 178.898438 C 312.011719 178.898438 332.25 199.140625 332.25 224.019531 C 332.25 248.898438 312.011719 269.140625 287.132812 269.140625 Z M 287.132812 188.839844 C 267.734375 188.839844 251.953125 204.621094 251.953125 224.019531 C 251.953125 243.417969 267.734375 259.199219 287.132812 259.199219 C 306.527344 259.199219 322.308594 243.417969 322.308594 224.019531 C 322.308594 204.621094 306.527344 188.839844 287.132812 188.839844 Z M 287.132812 188.839844 " fill-opacity="1" fill-rule="nonzero"/></g><path fill="#ffffff" d="M 409.292969 629.253906 C 402.078125 629.253906 395.296875 626.460938 390.175781 621.371094 C 385.007812 616.238281 382.164062 609.40625 382.164062 602.125 L 382.164062 496.109375 L 274.902344 496.109375 C 242.90625 496.109375 216.878906 470.082031 216.878906 438.089844 L 216.878906 340.105469 C 216.878906 323.511719 223.34375 307.898438 235.085938 296.140625 C 246.828125 284.398438 262.445312 277.929688 279.054688 277.929688 C 282.246094 277.929688 285.472656 278.078125 288.640625 278.367188 C 314.9375 280.765625 339.359375 293.425781 357.40625 314.007812 L 390.710938 352 L 441.679688 352 C 447.765625 352 453.46875 354.390625 457.734375 358.738281 C 462 363.082031 464.289062 368.832031 464.175781 374.925781 C 463.964844 387.113281 453.609375 397.023438 441.097656 397.023438 L 357.539062 397.023438 C 356.097656 397.023438 354.722656 396.398438 353.78125 395.304688 L 322.03125 358.601562 L 322.03125 417.246094 C 322.03125 427.886719 330.691406 436.546875 341.332031 436.546875 L 408.21875 436.546875 C 424.144531 436.546875 437.101562 449.503906 437.101562 465.429688 L 437.101562 602.117188 C 437.101562 616.980469 425.011719 629.152344 410.148438 629.25 L 409.476562 629.253906 Z M 279.054688 287.875 C 265.097656 287.875 251.980469 293.304688 242.117188 303.171875 C 232.253906 313.046875 226.820312 326.164062 226.820312 340.105469 L 226.820312 438.089844 C 226.820312 464.601562 248.390625 486.167969 274.902344 486.167969 L 387.136719 486.167969 C 389.878906 486.167969 392.105469 488.394531 392.105469 491.140625 L 392.105469 602.125 C 392.105469 606.734375 393.910156 611.066406 397.179688 614.316406 C 400.425781 617.542969 404.722656 619.3125 409.292969 619.3125 L 409.410156 619.3125 L 410.082031 619.308594 C 419.5 619.246094 427.160156 611.535156 427.160156 602.117188 L 427.160156 465.429688 C 427.160156 454.984375 418.664062 446.488281 408.21875 446.488281 L 341.332031 446.488281 C 325.207031 446.488281 312.089844 433.371094 312.089844 417.246094 L 312.089844 345.257812 C 312.089844 343.179688 313.382812 341.324219 315.328125 340.597656 C 317.273438 339.871094 319.464844 340.433594 320.820312 342.003906 L 359.8125 387.082031 L 441.097656 387.082031 C 448.222656 387.082031 454.117188 381.550781 454.238281 374.75 L 454.238281 374.742188 C 454.300781 371.339844 453.023438 368.128906 450.640625 365.703125 C 448.257812 363.277344 445.074219 361.941406 441.679688 361.941406 L 388.457031 361.941406 C 387.027344 361.941406 385.664062 361.324219 384.71875 360.246094 L 349.929688 320.5625 C 333.574219 301.902344 311.484375 290.433594 287.738281 288.269531 C 284.867188 288.007812 281.945312 287.875 279.054688 287.875 Z M 279.054688 287.875 " fill-opacity="1" fill-rule="nonzero"/><path fill="#ffffff" d="M 352.058594 525.492188 L 268.96875 525.492188 C 221.566406 525.492188 183 486.925781 183 439.523438 L 183 304.269531 C 183 301.523438 185.222656 299.300781 187.96875 299.300781 C 190.714844 299.300781 192.941406 301.523438 192.941406 304.269531 L 192.941406 439.523438 C 192.941406 481.445312 227.046875 515.550781 268.96875 515.550781 L 352.058594 515.550781 C 354.804688 515.550781 357.03125 517.777344 357.03125 520.523438 C 357.03125 523.269531 354.804688 525.492188 352.058594 525.492188 Z M 352.058594 525.492188 " fill-opacity="1" fill-rule="nonzero"/><path fill="#ffffff" d="M 274.566406 626.113281 C 271.820312 626.113281 269.59375 623.886719 269.59375 621.140625 L 269.59375 520.523438 C 269.59375 517.777344 271.820312 515.550781 274.566406 515.550781 C 277.308594 515.550781 279.535156 517.777344 279.535156 520.523438 L 279.535156 621.140625 C 279.535156 623.886719 277.308594 626.113281 274.566406 626.113281 Z M 274.566406 626.113281 " fill-opacity="1" fill-rule="nonzero"/><path fill="#ffffff" d="M 299.4375 626.410156 L 245.671875 626.410156 C 242.925781 626.410156 240.699219 624.183594 240.699219 621.441406 C 240.699219 618.695312 242.925781 616.46875 245.671875 616.46875 L 299.4375 616.46875 C 302.183594 616.46875 304.410156 618.695312 304.410156 621.441406 C 304.410156 624.183594 302.183594 626.410156 299.4375 626.410156 Z M 299.4375 626.410156 " fill-opacity="1" fill-rule="nonzero"/><g clip-path="url(#b8b61611d5)"><path fill="#ffffff" d="M 471.699219 631.105469 L 471.648438 631.105469 C 468.902344 631.078125 466.699219 628.832031 466.726562 626.085938 L 469.011719 391.992188 C 469.039062 389.265625 471.253906 387.070312 473.980469 387.070312 L 622.023438 387.070312 C 624.769531 387.070312 626.996094 389.296875 626.996094 392.042969 C 626.996094 394.785156 624.769531 397.011719 622.023438 397.011719 L 478.90625 397.011719 L 476.667969 626.183594 C 476.640625 628.910156 474.421875 631.105469 471.699219 631.105469 Z M 471.699219 631.105469 " fill-opacity="1" fill-rule="nonzero"/></g><g clip-path="url(#79cc975558)"><path fill="#ffffff" d="M 580.621094 631.105469 L 580.570312 631.105469 C 577.824219 631.078125 575.621094 628.832031 575.648438 626.085938 L 577.933594 391.992188 C 577.960938 389.265625 580.179688 387.070312 582.902344 387.070312 C 582.917969 387.070312 582.9375 387.070312 582.953125 387.070312 C 585.699219 387.097656 587.902344 389.34375 587.875 392.089844 L 585.589844 626.183594 C 585.5625 628.910156 583.34375 631.105469 580.621094 631.105469 Z M 580.621094 631.105469 " fill-opacity="1" fill-rule="nonzero"/></g><path fill="#ffffff" d="M 538.203125 365.980469 C 537.898438 365.980469 537.59375 365.953125 537.285156 365.898438 C 534.585938 365.394531 532.804688 362.800781 533.308594 360.101562 L 563.738281 196.628906 C 564.242188 193.929688 566.835938 192.148438 569.535156 192.652344 C 572.234375 193.152344 574.015625 195.75 573.515625 198.449219 L 543.082031 361.917969 C 542.636719 364.3125 540.550781 365.980469 538.203125 365.980469 Z M 538.203125 365.980469 " fill-opacity="1" fill-rule="nonzero"/><path fill="#ffffff" d="M 473.980469 397.011719 L 360.542969 397.011719 C 357.796875 397.011719 355.570312 394.785156 355.570312 392.042969 C 355.570312 389.296875 357.796875 387.070312 360.542969 387.070312 L 473.980469 387.070312 C 476.726562 387.070312 478.953125 389.296875 478.953125 392.042969 C 478.953125 394.785156 476.726562 397.011719 473.980469 397.011719 Z M 473.980469 397.011719 " fill-opacity="1" fill-rule="nonzero"/><path fill="#ffffff" d="M 582.871094 394.410156 C 580.152344 394.410156 577.933594 392.226562 577.902344 389.5 C 577.6875 372.207031 577.527344 351.5 577.863281 345.671875 C 575.945312 340.496094 561.0625 312.683594 547.554688 288.28125 C 546.222656 285.878906 547.09375 282.855469 549.496094 281.523438 C 551.898438 280.195312 554.921875 281.066406 556.25 283.464844 C 556.332031 283.609375 564.226562 297.875 571.957031 312.269531 C 588.070312 342.269531 588.191406 343.964844 587.773438 346.109375 C 587.507812 348.855469 587.609375 370.351562 587.839844 389.378906 C 587.875 392.125 585.675781 394.375 582.929688 394.410156 C 582.910156 394.410156 582.890625 394.410156 582.871094 394.410156 Z M 587.75 346.21875 C 587.75 346.226562 587.746094 346.238281 587.746094 346.246094 C 587.746094 346.238281 587.75 346.226562 587.75 346.21875 Z M 578.007812 346.101562 Z M 578.007812 346.101562 " fill-opacity="1" fill-rule="nonzero"/></svg>