<svg xmlns="http://www.w3.org/2000/svg" xmlns:xlink="http://www.w3.org/1999/xlink" width="1080" zoomAndPan="magnify" viewBox="0 0 810 809.999993" height="1080" preserveAspectRatio="xMidYMid meet" version="1.0"><defs><clipPath id="9b316782ef"><path d="M 164.085938 186 L 645.585938 186 L 645.585938 623.988281 L 164.085938 623.988281 Z M 164.085938 186 " clip-rule="nonzero"/></clipPath></defs><g clip-path="url(#9b316782ef)"><path fill="#ffffff" d="M 195.578125 479.628906 C 194.910156 479.628906 194.179688 479.445312 193.570312 479.082031 C 192.660156 478.535156 191.992188 477.683594 191.746094 476.710938 L 164.816406 376.03125 C 164.269531 373.902344 165.484375 371.769531 167.613281 371.164062 L 208.953125 360.089844 C 209.925781 359.847656 211.019531 359.96875 211.929688 360.515625 C 212.84375 361.066406 213.511719 361.917969 213.753906 362.890625 L 240.6875 463.570312 C 241.234375 465.699219 240.019531 467.828125 237.890625 468.4375 L 196.550781 479.507812 C 196.246094 479.570312 195.882812 479.628906 195.578125 479.628906 Z M 173.507812 377.792969 L 198.375 470.808594 L 232.054688 461.804688 L 207.1875 368.730469 Z M 445.203125 463.996094 C 445.203125 463.996094 445.144531 463.996094 445.082031 463.996094 C 445.019531 463.996094 445.019531 463.996094 444.960938 463.996094 L 234.0625 458.640625 C 232.296875 458.582031 230.777344 457.425781 230.351562 455.722656 L 208.769531 374.8125 C 208.34375 373.109375 209.011719 371.34375 210.53125 370.433594 L 390.488281 260.324219 C 391.765625 259.535156 393.40625 259.535156 394.621094 260.324219 C 395.898438 261.113281 396.628906 262.574219 396.445312 264.035156 C 393.527344 293.78125 397.175781 329.675781 406.660156 365.078125 C 416.082031 400.242188 430.671875 432.847656 447.878906 457 C 448.667969 457.730469 449.214844 458.761719 449.214844 459.980469 C 449.15625 462.230469 447.390625 463.996094 445.203125 463.996094 Z M 237.28125 450.792969 L 437.480469 455.84375 C 421.492188 431.632812 407.996094 400.484375 399.058594 367.148438 C 390.121094 333.871094 386.292969 300.109375 387.996094 271.089844 L 217.160156 375.664062 Z M 504.539062 505.058594 C 466.359375 505.058594 421.613281 445.5625 400.457031 366.722656 C 376.992188 279.121094 390.0625 202.046875 430.308594 191.277344 C 433.347656 190.488281 436.507812 190.0625 439.730469 190.0625 C 477.972656 190.0625 522.71875 249.554688 543.753906 328.398438 C 567.21875 415.996094 554.148438 493.074219 513.964844 503.902344 C 510.984375 504.691406 507.761719 505.058594 504.539062 505.058594 Z M 439.730469 197.96875 C 437.238281 197.96875 434.746094 198.273438 432.375 198.941406 C 397.660156 208.25 386.535156 284.171875 408.117188 364.714844 C 428.058594 438.992188 470.371094 497.148438 504.539062 497.148438 C 507.09375 497.148438 509.585938 496.84375 511.957031 496.175781 C 546.671875 486.867188 557.734375 410.949219 536.152344 330.40625 C 516.335938 256.125 473.960938 197.96875 439.730469 197.96875 Z M 531.472656 491.554688 C 530.984375 491.554688 530.558594 491.492188 530.132812 491.308594 C 495.238281 478.414062 459.492188 424.027344 441.25 355.894531 C 423.011719 287.761719 426.722656 222.730469 450.554688 194.078125 C 451.648438 192.800781 453.410156 192.3125 454.929688 192.859375 C 489.828125 205.695312 525.515625 260.203125 543.8125 328.398438 C 562.050781 396.589844 558.34375 461.621094 534.511719 490.152344 C 533.722656 491.066406 532.628906 491.554688 531.472656 491.554688 Z M 454.871094 201.375 C 434.5625 228.996094 432.011719 290.863281 448.851562 353.824219 C 465.691406 416.789062 498.824219 469.105469 530.195312 482.855469 C 550.5 455.355469 553.054688 393.488281 536.152344 330.464844 C 519.3125 267.382812 486.179688 215.0625 454.871094 201.375 Z M 450.308594 376.757812 C 448.609375 376.757812 447.089844 375.664062 446.539062 374.023438 C 444.414062 367.332031 442.648438 361.367188 441.191406 355.894531 C 439.609375 349.992188 438.152344 343.96875 436.8125 337.460938 C 436.449219 335.636719 437.359375 333.8125 439.0625 333.082031 C 443.804688 330.890625 448.667969 329.1875 453.652344 327.847656 C 461.4375 325.71875 469.398438 324.625 476.632812 324.625 C 492.503906 324.625 503.382812 329.855469 505.753906 338.617188 C 507.578125 345.371094 504.054688 352.792969 495.785156 359.605469 C 488.367188 365.6875 477.789062 370.796875 465.996094 374.023438 C 460.585938 375.421875 455.417969 376.332031 450.734375 376.820312 C 450.554688 376.757812 450.433594 376.757812 450.308594 376.757812 Z M 445.203125 338.980469 C 446.359375 344.152344 447.511719 349.019531 448.851562 353.824219 C 450.066406 358.386719 451.464844 363.195312 453.105469 368.546875 C 456.511719 368.058594 460.160156 367.332031 463.929688 366.355469 C 474.628906 363.4375 484.171875 358.875 490.738281 353.460938 C 496.394531 348.835938 499.066406 344.152344 498.09375 340.625 C 496.820312 335.757812 488.125 332.472656 476.632812 332.472656 C 470.070312 332.472656 462.835938 333.507812 455.660156 335.453125 C 452.132812 336.367188 448.609375 337.523438 445.203125 338.980469 Z M 335.285156 598.132812 C 333.886719 598.132812 332.550781 597.402344 331.820312 596.066406 L 255.339844 457.183594 C 254.671875 455.902344 254.671875 454.382812 255.460938 453.167969 C 256.191406 451.949219 257.589844 451.28125 258.988281 451.339844 L 305.921875 453.714844 C 307.257812 453.773438 308.535156 454.566406 309.203125 455.722656 L 376.199219 576.234375 C 376.746094 577.207031 376.871094 578.363281 376.503906 579.457031 C 376.140625 580.492188 375.347656 581.34375 374.316406 581.828125 L 336.867188 597.828125 C 336.378906 598.011719 335.832031 598.132812 335.285156 598.132812 Z M 265.675781 459.613281 L 337.046875 589.128906 L 367.140625 576.234375 L 303.308594 461.5 Z M 258.136719 409.0625 L 381.914062 375.847656 C 384.042969 375.300781 385.257812 373.109375 384.710938 370.980469 C 384.164062 368.851562 381.914062 367.632812 379.847656 368.183594 L 256.070312 401.398438 C 253.941406 401.945312 252.726562 404.136719 253.273438 406.265625 C 253.757812 408.027344 255.339844 409.183594 257.101562 409.183594 C 257.46875 409.183594 257.769531 409.125 258.136719 409.0625 Z M 591.902344 310.269531 L 632.816406 299.320312 C 634.945312 298.769531 636.160156 296.582031 635.613281 294.453125 C 635.066406 292.324219 632.878906 291.105469 630.75 291.652344 L 589.835938 302.605469 C 587.707031 303.152344 586.492188 305.339844 587.039062 307.46875 C 587.527344 309.234375 589.105469 310.390625 590.871094 310.390625 C 591.234375 310.390625 591.539062 310.328125 591.902344 310.269531 Z M 645.644531 356.683594 C 645.644531 354.496094 643.882812 352.730469 641.695312 352.730469 L 599.378906 352.730469 C 597.191406 352.730469 595.429688 354.496094 595.429688 356.683594 C 595.429688 358.875 597.191406 360.640625 599.378906 360.640625 L 641.695312 360.640625 C 643.882812 360.640625 645.644531 358.875 645.644531 356.683594 Z M 639.203125 419.402344 C 639.75 417.273438 638.53125 415.144531 636.40625 414.539062 L 595.550781 403.585938 C 593.484375 403.039062 591.292969 404.257812 590.6875 406.386719 C 590.140625 408.515625 591.355469 410.644531 593.484375 411.253906 L 634.339844 422.203125 C 634.703125 422.261719 635.007812 422.324219 635.371094 422.324219 C 637.132812 422.386719 638.777344 421.230469 639.203125 419.402344 Z M 540.164062 223.582031 L 570.078125 193.652344 C 571.597656 192.128906 571.597656 189.574219 570.078125 188.054688 C 568.558594 186.53125 566.003906 186.53125 564.484375 188.054688 L 534.574219 217.984375 C 533.054688 219.503906 533.054688 222.058594 534.574219 223.582031 C 535.363281 224.371094 536.335938 224.738281 537.371094 224.738281 C 538.402344 224.738281 539.375 224.371094 540.164062 223.582031 Z M 571.71875 263.546875 L 608.378906 242.378906 C 610.261719 241.285156 610.933594 238.851562 609.835938 236.964844 C 608.742188 235.078125 606.3125 234.410156 604.425781 235.503906 L 567.765625 256.675781 C 565.882812 257.769531 565.214844 260.203125 566.308594 262.089844 C 567.039062 263.367188 568.375 264.097656 569.710938 264.097656 C 570.441406 264.035156 571.109375 263.851562 571.71875 263.546875 Z M 530.132812 599.351562 C 530.132812 597.160156 528.371094 595.394531 526.183594 595.394531 L 187.550781 595.394531 C 185.363281 595.394531 183.601562 597.160156 183.601562 599.351562 C 183.601562 601.539062 185.363281 603.304688 187.550781 603.304688 L 526.183594 603.304688 C 528.371094 603.363281 530.132812 601.539062 530.132812 599.351562 Z M 604.183594 620.277344 C 604.183594 618.085938 602.421875 616.324219 600.230469 616.324219 L 261.660156 616.324219 C 259.472656 616.324219 257.710938 618.085938 257.710938 620.277344 C 257.710938 622.464844 259.472656 624.230469 261.660156 624.230469 L 600.230469 624.230469 C 602.421875 624.230469 604.183594 622.464844 604.183594 620.277344 Z M 604.183594 620.277344 " fill-opacity="1" fill-rule="nonzero"/></g></svg>